<svg width="43" height="42" viewBox="0 0 43 42" xmlns="http://www.w3.org/2000/svg">
<path d="M21.9977 26.1277C19.1594 26.1277 16.87 23.8383 16.87 21C16.87 18.1616 19.1594 15.8722 21.9977 15.8722C24.8361 15.8722 27.1255 18.1616 27.1255 21C27.1255 23.8383 24.8361 26.1277 21.9977 26.1277ZM21.9977 17.6663C20.1635 17.6663 18.664 19.1613 18.664 21C18.664 22.8387 20.1591 24.3337 21.9977 24.3337C23.8364 24.3337 25.3315 22.8387 25.3315 21C25.3315 19.1613 23.832 17.6663 21.9977 17.6663ZM28.5313 26.3375C28.5313 25.6725 27.9957 25.1415 27.3352 25.1415C26.6703 25.1415 26.1392 25.677 26.1392 26.3375C26.1392 26.998 26.6748 27.5335 27.3352 27.5335C27.9957 27.5335 28.5313 26.998 28.5313 26.3375ZM31.9275 25.1236C31.8516 26.7257 31.4856 28.1449 30.3119 29.3142C29.1427 30.4834 27.7235 30.8494 26.1214 30.9297C24.4701 31.0234 19.5209 31.0234 17.8697 30.9297C16.272 30.8538 14.8528 30.4879 13.6791 29.3186C12.5054 28.1494 12.1439 26.7302 12.0636 25.1281C11.9699 23.4768 11.9699 18.5276 12.0636 16.8764C12.1394 15.2742 12.5054 13.8551 13.6791 12.6858C14.8528 11.5166 16.2675 11.1506 17.8697 11.0703C19.5209 10.9766 24.4701 10.9766 26.1214 11.0703C27.7235 11.1461 29.1427 11.5121 30.3119 12.6858C31.4812 13.8551 31.8471 15.2742 31.9275 16.8764C32.0212 18.5276 32.0212 23.4724 31.9275 25.1236ZM29.7942 15.1046C29.4461 14.2299 28.7723 13.556 27.8931 13.2035C26.5766 12.6813 23.4526 12.8018 21.9977 12.8018C20.5429 12.8018 17.4145 12.6858 16.1024 13.2035C15.2277 13.5516 14.5538 14.2255 14.2013 15.1046C13.6791 16.4212 13.7996 19.5451 13.7996 21C13.7996 22.4549 13.6836 25.5833 14.2013 26.8953C14.5494 27.77 15.2232 28.4439 16.1024 28.7965C17.4189 29.3186 20.5429 29.1981 21.9977 29.1981C23.4526 29.1981 26.581 29.3142 27.8931 28.7965C28.7678 28.4484 29.4417 27.7745 29.7942 26.8953C30.3164 25.5788 30.1959 22.4549 30.1959 21C30.1959 19.5451 30.3164 16.4167 29.7942 15.1046Z" fill="#18B5DC"/>
</svg>
