<svg width="44" height="42" viewBox="0 0 44 42" fill="none" xmlns="http://www.w3.org/2000/svg">
<path d="M16.4766 31H12.3301V17.647H16.4766V31ZM14.4011 15.8256C13.0752 15.8256 11.9998 14.7273 11.9998 13.4014C11.9998 12.7645 12.2528 12.1537 12.7031 11.7034C13.1535 11.253 13.7643 11 14.4011 11C15.038 11 15.6488 11.253 16.0992 11.7034C16.5495 12.1537 16.8025 12.7645 16.8025 13.4014C16.8025 14.7273 15.7266 15.8256 14.4011 15.8256ZM31.9957 31H27.8581V24.4999C27.8581 22.9507 27.8269 20.9641 25.7023 20.9641C23.5464 20.9641 23.2161 22.6471 23.2161 24.3882V31H19.074V17.647H23.0509V19.4685H23.1089C23.6625 18.4194 25.0148 17.3122 27.0322 17.3122C31.2288 17.3122 32.0002 20.0756 32.0002 23.665V31H31.9957Z" fill="#18B5DC"/>
</svg>
