<svg width="43" height="42" viewBox="0 0 43 42" xmlns="http://www.w3.org/2000/svg">
<path d="M29.9374 16.9264C29.9501 17.104 29.9501 17.2817 29.9501 17.4594C29.9501 22.8781 25.8258 29.1218 18.2877 29.1218C15.9654 29.1218 13.808 28.4492 11.9933 27.2817C12.3232 27.3198 12.6405 27.3325 12.9831 27.3325C14.8993 27.3325 16.6633 26.6853 18.072 25.5812C16.2699 25.5431 14.7598 24.363 14.2395 22.7386C14.4933 22.7766 14.7471 22.802 15.0136 22.802C15.3816 22.802 15.7497 22.7512 16.0923 22.6624C14.2141 22.2817 12.8054 20.632 12.8054 18.6396V18.5889C13.3511 18.8934 13.9857 19.0838 14.6582 19.1091C13.5541 18.3731 12.8308 17.1167 12.8308 15.6954C12.8308 14.934 13.0338 14.236 13.3892 13.6269C15.407 16.1142 18.44 17.7385 21.8409 17.9162C21.7775 17.6117 21.7394 17.2944 21.7394 16.9772C21.7394 14.7183 23.5668 12.8782 25.8384 12.8782C27.0186 12.8782 28.0846 13.3731 28.8333 14.1726C29.7597 13.9949 30.648 13.6523 31.4348 13.1828C31.1302 14.1346 30.4831 14.934 29.6328 15.4416C30.4577 15.3528 31.2572 15.1244 31.9932 14.8071C31.4349 15.6193 30.7369 16.3426 29.9374 16.9264Z" fill="#18B5DC"/>
</svg>
